<svg width="94" height="31" viewBox="0 0 94 31" fill="none" xmlns="http://www.w3.org/2000/svg">
<path d="M40.062 19.414V17.0984C40.062 16.7167 39.9856 16.3944 39.8329 16.1314C39.6802 15.8683 39.411 15.6713 39.025 15.5396C38.639 15.4082 38.0938 15.3426 37.3898 15.3426C36.9912 15.3426 36.6029 15.3785 36.2257 15.4506C35.8481 15.5228 35.5091 15.6098 35.2078 15.7114C34.9066 15.8129 34.6668 15.9149 34.4889 16.0168L34.4633 15.406C34.4973 15.2788 34.6138 15.0856 34.8131 14.8272C35.0124 14.5683 35.3029 14.2968 35.6847 14.0128C36.0665 13.7287 36.5479 13.4867 37.1286 13.2874C37.7097 13.0881 38.3989 12.9884 39.1964 12.9884C39.697 12.9884 40.1803 13.035 40.6469 13.1285C41.1134 13.2217 41.5311 13.3767 41.9003 13.5928C42.2691 13.8089 42.5639 14.0994 42.7846 14.4644C43.0052 14.8291 43.1152 15.283 43.1152 15.8259V19.414H40.0612H40.062ZM31.5621 19.414V10.6343H34.6161V19.414H31.5621Z" fill="white"/>
<path d="M52.862 17.1748H55.8648C55.7884 17.6665 55.5449 18.0953 55.1333 18.4599C54.7217 18.8245 54.1238 19.1066 53.3392 19.3059C52.5546 19.5052 51.5555 19.6049 50.3425 19.6049C49.0616 19.6049 47.9567 19.5033 47.0278 19.2994C46.0989 19.0959 45.3842 18.7523 44.8836 18.2686C44.3831 17.7852 44.1326 17.132 44.1326 16.3088C44.1326 15.4945 44.3766 14.8435 44.8645 14.3556C45.3521 13.8676 46.0584 13.5179 46.9831 13.3056C47.9078 13.0937 49.0276 12.9876 50.3421 12.9876C51.6315 12.9876 52.6875 13.1021 53.5107 13.3312C54.3334 13.5603 54.9401 13.9314 55.3303 14.4445C55.7205 14.9577 55.9072 15.651 55.8904 16.5249H47.2378C47.2801 16.7452 47.4012 16.9491 47.6005 17.1358C47.7998 17.3221 48.1094 17.4729 48.5294 17.5875C48.9494 17.702 49.5114 17.7593 50.2154 17.7593C50.945 17.7593 51.5452 17.7085 52.0159 17.6066C52.4867 17.505 52.7688 17.3607 52.862 17.174V17.1748ZM50.2154 14.8336C49.3163 14.8336 48.6313 14.9309 48.1602 15.126C47.6894 15.3211 47.4115 15.5162 47.3267 15.7113H52.9254C52.8662 15.4907 52.6287 15.2895 52.2129 15.107C51.7972 14.9248 51.1313 14.8336 50.215 14.8336H50.2154Z" fill="white"/>
<path d="M57.0985 10.6343H60.1525V19.414H57.0985V10.6343Z" fill="white"/>
<path d="M69.2514 19.6048C68.4878 19.6048 67.801 19.5265 67.1901 19.3696C66.5792 19.2127 66.0577 18.9878 65.6251 18.6949C65.1925 18.4025 64.8615 18.0524 64.6324 17.645C64.4034 17.238 64.2888 16.7883 64.2888 16.2965C64.2888 15.8044 64.4034 15.3569 64.6324 14.9541C64.8615 14.5513 65.1922 14.2035 65.6251 13.9107C66.0577 13.6178 66.5796 13.393 67.1901 13.236C67.801 13.0791 68.4878 13.0009 69.2514 13.0009C70.1677 13.0009 70.984 13.1303 71.7006 13.3888C72.4176 13.6476 72.9792 14.0229 73.3866 14.5147C73.7936 15.0068 73.9975 15.6005 73.9975 16.2961C73.9975 17.0257 73.794 17.6362 73.3866 18.1284C72.9792 18.6201 72.4172 18.9893 71.7006 19.2352C70.984 19.4811 70.1673 19.604 69.2514 19.604V19.6048ZM68.1064 17.658C68.6833 17.658 69.1754 17.6072 69.5824 17.5053C69.9898 17.4037 70.2994 17.2529 70.5113 17.0536C70.7232 16.8543 70.8294 16.6019 70.8294 16.2965C70.8294 15.8468 70.5919 15.5073 70.1165 15.2786C69.6416 15.0496 68.9715 14.935 68.106 14.935C67.4612 14.935 66.8698 14.9732 66.331 15.0496C65.7923 15.1259 65.3598 15.2638 65.0333 15.463C64.7069 15.6623 64.5435 15.9403 64.5435 16.2965C64.5435 16.6527 64.7069 16.9307 65.0333 17.13C65.3598 17.3293 65.7927 17.4671 66.331 17.5435C66.8698 17.6198 67.4612 17.658 68.106 17.658H68.1064ZM61.4899 13.1792H64.3656L64.5435 15.5967V21.9589H61.4895V13.1792H61.4899Z" fill="white"/>
<path d="M83.6172 17.1748H86.62C86.5436 17.6665 86.3001 18.0953 85.8885 18.4599C85.4769 18.8245 84.879 19.1066 84.0944 19.3059C83.3098 19.5052 82.3107 19.6049 81.0977 19.6049C79.8168 19.6049 78.7119 19.5033 77.783 19.2994C76.8541 19.0959 76.1393 18.7523 75.6388 18.2686C75.1383 17.7852 74.8878 17.132 74.8878 16.3088C74.8878 15.4945 75.1318 14.8435 75.6197 14.3556C76.1073 13.8676 76.8136 13.5179 77.7383 13.3056C78.663 13.0937 79.7828 12.9876 81.0973 12.9876C82.3867 12.9876 83.4427 13.1021 84.2658 13.3312C85.0886 13.5603 85.6953 13.9314 86.0855 14.4445C86.4757 14.9577 86.6624 15.651 86.6456 16.5249H77.993C78.0353 16.7452 78.1564 16.9491 78.3557 17.1358C78.555 17.3221 78.8646 17.4729 79.2846 17.5875C79.7045 17.702 80.2665 17.7593 80.9706 17.7593C81.7002 17.7593 82.3004 17.7085 82.7711 17.6066C83.2419 17.505 83.524 17.3607 83.6172 17.174V17.1748ZM80.9706 14.8336C80.0715 14.8336 79.3865 14.9309 78.9154 15.126C78.4446 15.3211 78.1667 15.5162 78.0819 15.7113H83.6806C83.6214 15.4907 83.3839 15.2895 82.9681 15.107C82.5524 14.9248 81.8865 14.8336 80.9702 14.8336H80.9706Z" fill="white"/>
<path d="M87.6637 13.1789H90.7177V19.414H87.6637V13.1789ZM94.0003 15.533C93.449 15.533 92.9443 15.5838 92.4861 15.6857C92.028 15.7873 91.6378 15.9083 91.3156 16.0484C90.9933 16.1882 90.7517 16.326 90.5902 16.4619L90.5646 15.8511C90.5902 15.6731 90.6577 15.4632 90.7681 15.2211C90.8784 14.9794 91.0265 14.729 91.2132 14.4705C91.3999 14.2116 91.629 13.97 91.9005 13.7451C92.1719 13.5202 92.4839 13.3381 92.8359 13.198C93.1879 13.0582 93.5762 12.988 94 12.988V15.533H94.0003Z" fill="white"/>
<path fill-rule="evenodd" clip-rule="evenodd" d="M15.9856 4.47423C26.8656 4.02562 34.0564 18.9817 16.1502 26.0369C10.878 28.1146 3.26116 21.3286 4.11753 14.202C4.9739 7.0754 5.10523 4.92284 15.9856 4.47423Z" fill="#99DBFF"/>
<path opacity="0.2" fill-rule="evenodd" clip-rule="evenodd" d="M10.1627 5.87427C19.1872 -0.219487 33.1591 8.7346 21.623 24.14C18.2266 28.6762 8.18126 26.8994 5.1687 20.3843C2.15614 13.8692 1.13784 11.9682 10.1627 5.87427Z" fill="#33FFE4"/>
<path opacity="0.35" fill-rule="evenodd" clip-rule="evenodd" d="M24.8178 21.3095C19.7646 30.9552 3.21713 29.7016 6.06367 10.6673C6.90142 5.06271 16.5873 1.86111 22.3301 6.16707C28.073 10.473 29.8713 11.6634 24.8178 21.3095Z" fill="#00CCB1"/>
<path fill-rule="evenodd" clip-rule="evenodd" d="M16.0833 4.77448C28.4508 4.2644 30.8534 23.526 16.0699 25.0226C10.8859 25.5476 3.83418 20.748 4.62144 14.1949C5.40908 7.64214 8.44092 5.08946 16.0829 4.77448H16.0833Z" fill="white"/>
<path d="M8.97681 11.2702H22.2102V13.6877H8.97681V11.2702ZM14.0028 13.5224H17.1839V19.4139H14.0028V13.5224Z" fill="#27272A"/>
<path d="M22.6714 14.9988H28.6358V16.9074H22.6714V14.9988Z" fill="#27272A"/>
<path d="M30.2217 15.574C30.1361 15.5866 30.0514 15.6007 29.9674 15.6168C29.5898 15.6889 29.2507 15.776 28.9495 15.8775C28.7502 15.9447 28.578 16.0123 28.4326 16.0795V15.1586C28.4692 15.1067 28.5101 15.0517 28.5551 14.9929C28.7544 14.7341 29.045 14.4626 29.4268 14.1786C29.6558 14.0079 29.9208 13.8525 30.222 13.7128V15.5736L30.2217 15.574Z" fill="white"/>
<path d="M30.2217 16.3326C30.1361 16.32 30.0514 16.3059 29.9674 16.2899C29.5898 16.2177 29.2507 16.1307 28.9495 16.0291C28.7502 15.9619 28.578 15.8943 28.4326 15.8271V16.748C28.4692 16.8 28.5101 16.8549 28.5551 16.9137C28.7544 17.1726 29.045 17.4441 29.4268 17.7281C29.6558 17.8988 29.9208 18.0542 30.222 18.1939V16.333L30.2217 16.3326Z" fill="white"/>
<path fill-rule="evenodd" clip-rule="evenodd" d="M26.2747 14.9988H28.6361V16.9074H26.0647C26.1937 16.2782 26.2625 15.6387 26.2747 14.9988Z" fill="white"/>
</svg>
